<svg xmlns="http://www.w3.org/2000/svg" width="24" height="24" fill="none" viewBox="0 0 24 24">
    <path fill="var(--color-icon)" fill-rule="evenodd"
        d="M16.5 7h-9a.5.5 0 0 0-.5.5v2a.5.5 0 0 0 .5.5h9a.5.5 0 0 0 .5-.5v-2a.5.5 0 0 0-.5-.5m-9-1A1.5 1.5 0 0 0 6 7.5v2A1.5 1.5 0 0 0 7.5 11h9A1.5 1.5 0 0 0 18 9.5v-2A1.5 1.5 0 0 0 16.5 6zm2 8h-2a.5.5 0 0 0-.5.5v2a.5.5 0 0 0 .5.5h2a.5.5 0 0 0 .5-.5v-2a.5.5 0 0 0-.5-.5m-2-1A1.5 1.5 0 0 0 6 14.5v2A1.5 1.5 0 0 0 7.5 18h2a1.5 1.5 0 0 0 1.5-1.5v-2A1.5 1.5 0 0 0 9.5 13zm10.384 1.32a.5.5 0 0 0-.768-.64l-2.15 2.58-1.112-1.114a.5.5 0 0 0-.708.708l1.5 1.5a.5.5 0 0 0 .738-.034z"
        clip-rule="evenodd"></path>
</svg>