<svg xmlns="http://www.w3.org/2000/svg" width="24" height="24" fill="none" viewBox="0 0 24 24">
    <path fill="var(--color-icon-tertiary)" fill-rule="evenodd"
        d="M16 12.995c0 1.49-.521 2.453-1.217 3.057-.72.623-1.721.943-2.783.943s-2.063-.32-2.783-.943C8.521 15.448 8 14.486 8 12.995c0-1.036.597-2.328 1.493-3.63.845-1.228 1.85-2.317 2.507-2.98.658.663 1.662 1.752 2.507 2.98.896 1.302 1.493 2.594 1.493 3.63"
        clip-rule="evenodd"></path>
    <path fill="var(--color-icon)" fill-rule="evenodd"
        d="M14.783 16.056c.696-.604 1.217-1.567 1.217-3.057 0-1.037-.597-2.328-1.493-3.631-.844-1.227-1.85-2.316-2.507-2.98-.658.664-1.662 1.753-2.507 2.98C8.597 10.671 8 11.962 8 12.998c0 1.491.521 2.454 1.217 3.058.72.623 1.721.943 2.783.943s2.063-.32 2.783-.943M12 17.999c2.5 0 5-1.5 5-5 0-2.712-3-6.023-4.353-7.378a.907.907 0 0 0-1.294 0C10 6.976 7 10.287 7 13c0 3.5 2.5 5 5 5"
        clip-rule="evenodd"></path>
</svg>