<svg xmlns="http://www.w3.org/2000/svg" width="24" height="24" fill="none" viewBox="0 0 24 24">
    <path fill="var(--color-icon)" fill-rule="evenodd"
        d="M7.5 7a.5.5 0 0 1 .5.5v.25c0 .138.112.25.25.25h6.5a.25.25 0 0 0 .25-.25V7.5a.5.5 0 0 1 1 0v.25C16 8.44 15.44 9 14.75 9h-6.5C7.56 9 7 8.44 7 7.75V7.5a.5.5 0 0 1 .5-.5m.75 8a.25.25 0 0 0-.25.25v.25a.5.5 0 0 1-1 0v-.25c0-.69.56-1.25 1.25-1.25h6.5c.69 0 1.25.56 1.25 1.25v.25a.5.5 0 0 1-1 0v-.25a.25.25 0 0 0-.25-.25zm1.25-4a.5.5 0 0 0 0 1h4a.5.5 0 0 0 0-1z"
        clip-rule="evenodd"></path>
</svg>