<svg xmlns="http://www.w3.org/2000/svg" width="24" height="24" fill="none" viewBox="0 0 24 24">
    <path fill="var(--color-icon)" fill-rule="evenodd"
        d="M10 6.75A.75.75 0 0 0 9.25 6h-.5a.75.75 0 0 0-.75.75v9.5c0 .414.336.75.75.75h.5a.75.75 0 0 0 .75-.75zm5 2a.75.75 0 0 0-.75-.75h-.5a.75.75 0 0 0-.75.75v5.5c0 .414.336.75.75.75h.5a.75.75 0 0 0 .75-.75z"
        clip-rule="evenodd"></path>
    <path fill="var(--color-icon-tertiary)" fill-rule="evenodd"
        d="M17.5 11a.5.5 0 0 1 0 1H15v-1zM13 11h-3v1h3zm-7.5 0H8v1H5.5a.5.5 0 0 1 0-1" clip-rule="evenodd"></path>
</svg>