<svg width="24" height="24" fill="none" viewBox="0 0 24 24">
    <path fill="var(--color-icon)" fill-rule="evenodd"
        d="M17.25 10a.75.75 0 0 0 .75-.75v-.5a.75.75 0 0 0-.75-.75h-9.5a.75.75 0 0 0-.75.75v.5c0 .414.336.75.75.75zm-2 5a.75.75 0 0 0 .75-.75v-.5a.75.75 0 0 0-.75-.75h-5.5a.75.75 0 0 0-.75.75v.5c0 .414.336.75.75.75z"
        clip-rule="evenodd"></path>
    <path fill="var(--color-icon-tertiary)" fill-rule="evenodd"
        d="M13 17.5a.5.5 0 0 1-1 0V15h1zm0-4.5v-3h-1v3zm-1-7.5V8h1V5.5a.5.5 0 0 0-1 0" clip-rule="evenodd"></path>
</svg>