<svg width="24" height="24" fill="none" viewBox="0 0 24 24">
    <path fill="var(--color-icon)" fill-rule="evenodd"
        d="M13 13.965V12a1 1 0 0 0-1-1h-1.965A3.5 3.5 0 0 0 13 13.965M10.035 10A3.5 3.5 0 1 1 14 13.965V12a2 2 0 0 0-2-2zm7.965.5a4.5 4.5 0 1 1-9 0 4.5 4.5 0 0 1 9 0m-11 1a.5.5 0 0 1 .5-.5.5.5 0 0 0 0-1A1.5 1.5 0 0 0 6 11.5a.5.5 0 0 0 1 0m0 2a.5.5 0 0 0-1 0v1a.5.5 0 0 0 1 0zm0 3a.5.5 0 0 0-1 0A1.5 1.5 0 0 0 7.5 18a.5.5 0 0 0 0-1 .5.5 0 0 1-.5-.5m7 0a.5.5 0 0 0-1 0 .5.5 0 0 1-.5.5.5.5 0 0 0 0 1 1.5 1.5 0 0 0 1.5-1.5m-4.5.5a.5.5 0 0 0 0 1h1a.5.5 0 0 0 0-1z"
        clip-rule="evenodd"></path>
</svg>