<svg xmlns="http://www.w3.org/2000/svg" width="24" height="24" fill="none" viewBox="0 0 24 24">
    <path fill="var(--color-icon-tertiary)" fill-rule="evenodd" d="M14 10v4h-4v-4z" clip-rule="evenodd"></path>
    <path fill="var(--color-icon)" fill-rule="evenodd"
        d="M10.5 15H10v2h7v-7h-2v4a1 1 0 0 1-1 1zm0-1H10v-4h4v4zM9 14H7V7h7v2h-4a1 1 0 0 0-1 1zm-1 1H7a1 1 0 0 1-1-1V7a1 1 0 0 1 1-1h7a1 1 0 0 1 1 1v2h2a1 1 0 0 1 1 1v7a1 1 0 0 1-1 1h-7a1 1 0 0 1-1-1v-2z"
        clip-rule="evenodd"></path>
</svg>