<svg width="24" height="24" fill="none" viewBox="0 0 24 24">
    <path fill="var(--color-icon-tertiary)" fill-rule="evenodd" d="M14 7H7v7h3v3h7v-7h-3z" clip-rule="evenodd"></path>
    <mask id="fpl-icon-24-boolean-union-small-a" fill="#fff">
        <path fill-rule="evenodd"
            d="M7 6a1 1 0 0 0-1 1v7a1 1 0 0 0 1 1h2v2a1 1 0 0 0 1 1h7a1 1 0 0 0 1-1v-7a1 1 0 0 0-1-1h-2V7a1 1 0 0 0-1-1z"
            clip-rule="evenodd"></path>
    </mask>
    <path fill="var(--color-icon)"
        d="M9 15h1v-1H9zm6-6h-1v1h1zM7 7V5a2 2 0 0 0-2 2zm0 7V7H5v7zm0 0H5a2 2 0 0 0 2 2zm2 0H7v2h2zm1 3v-2H8v2zm0 0H8a2 2 0 0 0 2 2zm7 0h-7v2h7zm0 0v2a2 2 0 0 0 2-2zm0-7v7h2v-7zm0 0h2a2 2 0 0 0-2-2zm-2 0h2V8h-2zm-1-3v2h2V7zm0 0h2a2 2 0 0 0-2-2zM7 7h7V5H7z"
        mask="url(#fpl-icon-24-boolean-union-small-a)"></path>
</svg>