<svg xmlns="http://www.w3.org/2000/svg" width="24" height="24" fill="none" viewBox="0 0 24 24">
    <path fill="var(--color-icon)" fill-rule="evenodd"
        d="M5 6.75A.75.75 0 0 1 5.75 6h11.5a.75.75 0 0 1 .75.75v.5a.75.75 0 0 1-.75.75H5.75A.75.75 0 0 1 5 7.25zm0 5a.75.75 0 0 1 .75-.75h11.5a.75.75 0 0 1 .75.75v.5a.75.75 0 0 1-.75.75H5.75a.75.75 0 0 1-.75-.75zM5.75 16a.75.75 0 0 0-.75.75v.5c0 .414.336.75.75.75h11.5a.75.75 0 0 0 .75-.75v-.5a.75.75 0 0 0-.75-.75z"
        clip-rule="evenodd"></path>
</svg>