<svg width="24" height="24" fill="none" viewBox="0 0 24 24"><path fill="var(--color-icon)" d="M11.092 5.385a2 2 0 0 1 1.937.067l4 2.4.11.07c.537.372.86.986.861 1.645v4.867a2 2 0 0 1-.97 1.715l-4 2.4a2 2 0 0 1-1.938.067l-.121-.067-4-2.4A2 2 0 0 1 6 14.434c0-.24.195-.434.435-.434h.13c.24 0 .435.194.435.434l.009.131a1 1 0 0 0 .476.727l4 2.4c.277.166.615.187.908.063l.122-.063 4-2.4a1 1 0 0 0 .476-.727l.009-.13V9.566a1 1 0 0 0-.378-.783l-.107-.074-4-2.4a1 1 0 0 0-1.03 0l-4 2.4-.107.074A1 1 0 0 0 7 9.567a.433.433 0 0 1-.433.433h-.134A.433.433 0 0 1 6 9.567a2 2 0 0 1 .97-1.715l4-2.4zM12 10a2 2 0 1 1-1.935 2.5H5.5a.5.5 0 0 1 0-1h4.565A2 2 0 0 1 12 10m0 1a1 1 0 1 0 0 2 1 1 0 0 0 0-2"></path></svg>